<svg xmlns="http://www.w3.org/2000/svg" xmlns:xlink="http://www.w3.org/1999/xlink" id="Capa_1" width="612" height="612" x="0" style="enable-background:new 0 0 612 612" y="0" version="1.1" viewBox="0 0 612 612" xml:space="preserve"><g><g><polygon fill="#3084c3" points="515.368 450.947 515.368 483.158 612 483.158 612 0 128.842 0 128.842 96.632 161.053 96.632 161.053 32.21 579.789 32.21 579.789 450.947"/><path fill="#3084c3" d="M0,134.189v472.464C0,609.616,2.963,612,6.635,612H476.49c3.704,0,6.668-2.384,6.668-5.347V134.189 c0-2.963-2.964-5.347-6.636-5.347H6.635C2.963,128.842,0,131.226,0,134.189z M32.21,161.053h418.737v418.736H32.21V161.053z"/></g></g></svg>