<svg xmlns="http://www.w3.org/2000/svg" xmlns:xlink="http://www.w3.org/1999/xlink" id="Capa_1" width="401.994" height="401.994" x="0" style="enable-background:new 0 0 401.994 401.994" y="0" version="1.1" viewBox="0 0 401.994 401.994" xml:space="preserve"><g><g><path fill="#fff" d="M0,401.991h182.724V219.265H0V401.991z M36.542,255.813h109.636v109.352H36.542V255.813z"/><rect width="36.544" height="36.549" x="73.089" y="292.355" fill="#fff"/><rect width="36.553" height="36.545" x="292.352" y="365.449" fill="#fff"/><rect width="36.552" height="36.545" x="365.442" y="365.449" fill="#fff"/><polygon fill="#fff" points="365.446 255.813 328.904 255.813 328.904 219.265 219.265 219.265 219.265 401.991 255.813 401.991 255.813 292.355 292.352 292.355 292.352 328.904 401.991 328.904 401.991 219.265 401.991 219.265 365.446 219.265"/><path fill="#fff" d="M0,182.728h182.724V0H0V182.728z M36.542,36.542h109.636v109.636H36.542V36.542z"/><rect width="36.544" height="36.547" x="73.089" y="73.089" fill="#fff"/><path fill="#fff" d="M219.265,0v182.728h182.729V0H219.265z M365.446,146.178H255.813V36.542h109.633V146.178z"/><rect width="36.553" height="36.547" x="292.352" y="73.089" fill="#fff"/></g></g></svg>